# xmcd CD database file
#
# Track frame offsets:
#	150
#	29129
#	52885
#	64195
#	82736
#	107628
#	135797
#	152131
#	182551
#	208052
#
# Disc length: 3149 seconds
#
# Revision: 0
# Processed by: cddbd v1.5.2PL0 Copyright (c) Steve Scherf et al.
# Submitted via: CDex 1.70beta2
#
DISCID=7c0c4b0a
DTITLE=Sebastien Texier Trio - Don't Forget you are an animal
DYEAR=2010
DGENRE=Jazz
TTITLE0=Lilian's Tears
TTITLE1=Pain de singe
TTITLE2=Ombre d'or
TTITLE3=Redman
TTITLE4=Hyena's night
TTITLE5=The yellow cab experience
TTITLE6=Broken worlds
TTITLE7=Tango
TTITLE8=Don't forget you are an animal
TTITLE9=La fin du voyage
EXTD=YEAR: 2010
EXTT0=
EXTT1=
EXTT2=
EXTT3=
EXTT4=
EXTT5=
EXTT6=
EXTT7=
EXTT8=
EXTT9=
PLAYORDER=
